# xmcd
#
# Track frame offsets: 
#        150
#        19510
#        36445
#        52430
#        69539
#        84197
#        105957
#        119790
#        135424
#        148883
#        163667
#        182483
#
# Disc length: 2585 seconds
#
# Revision: 0
# Processed by: cddbd v1.5.2PL0 Copyright (c) Steve Scherf et al.
# Submitted via: ExactAudioCopy v1.3
#
DISCID=a70a170c
DTITLE=The Nighthawks - Rock 'n' Roll
DYEAR=1983
DGENRE=Harmonica Blues, Electric Blues
TTITLE0=Red Hot Mama (Fine Little Mama)
TTITLE1=Can't Get Next To You
TTITLE2=Keep Cool
TTITLE3=Bring It On Home
TTITLE4=Tell The Truth
TTITLE5=Stop Breakin' Down
TTITLE6=Shake and Finger Pop
TTITLE7=Bright Lights
TTITLE8=Little Sister
TTITLE9=Heat Wave
TTITLE10=Memo From Turner
TTITLE11=Teenage Nervous Breakdown
EXTD=
EXTT0=
EXTT1=
EXTT2=
EXTT3=
EXTT4=
EXTT5=
EXTT6=
EXTT7=
EXTT8=
EXTT9=
EXTT10=
EXTT11=
PLAYORDER=
